<?xml version="1.0" encoding="UTF-8" standalone="no"?>
<svg width="340px" height="340px" viewBox="0 0 340 340" version="1.1" xmlns="http://www.w3.org/2000/svg" xmlns:xlink="http://www.w3.org/1999/xlink">
    <!-- Generator: Sketch 3.7.1 (28215) - http://www.bohemiancoding.com/sketch -->
    <title>Base + Rounded</title>
    <desc>Created with Sketch.</desc>
    <defs></defs>
    <g id="Page-1" stroke="none" stroke-width="1" fill="none" fill-rule="evenodd">
        <g id="Base-+-Rounded">
            <rect id="Base" fill="#063753" x="0" y="0" width="340" height="340" rx="10"></rect>
            <g id="Rounded" transform="translate(20.000000, 20.000000)">
                <path d="M0,10.0029514 C0,4.47847388 4.47365195,0 10.0029514,0 L289.997049,0 C295.521526,0 300,4.47365195 300,10.0029514 L300,289.997049 C300,295.521526 295.526928,300 289.992416,300 L197.8125,300 L190.77832,285.986328 L108.429688,285.986328 L100.986328,300 L10.0056998,300 C4.47970441,300 0,295.526348 0,289.997049 L0,10.0029514 Z" id="Background" fill="#8EADCC"></path>
                <g id="Logo" transform="translate(39.959719, 10.000000)">
                    <g id="Base" transform="translate(12.562825, 195.083415)">
                        <polygon id="Path-38" fill="#0474BE" points="0 0 21.791376 94.8124394 48.7968151 94.81244 96.9992952 0 145.170423 94.8124429 172.389877 94.8124429 193.99859 0"></polygon>
                        <path d="M48.8529859,94.4714113 L21.1021111,54.9862802 C20.6597544,54.3568762 20.8144654,53.4885537 21.4521899,53.043673 L97.4888607,-4.54747351e-13 L48.8529859,94.4714113 L48.8529859,94.4714113 Z" id="Left-Flap" fill="#FFFFFF"></path>
                        <path d="M124.369702,94.4714113 L96.618827,54.9862802 C96.1764703,54.3568762 96.3311813,53.4885537 96.9689058,53.043673 L173.005577,-4.54747351e-13 L124.369702,94.4714113 L124.369702,94.4714113 Z" id="Left-Flap" fill="#FFFFFF" transform="translate(134.686237, 47.235706) scale(-1, 1) translate(-134.686237, -47.235706) "></path>
                        <polygon id="Shadow" fill="#1E323E" points="55.8708359 81.0511823 97.0120398 0 138.010014 81.0511823"></polygon>
                    </g>
                    <g id="Roof">
                        <path d="M218.313982,172.230787 L218.313982,172.091441 C217.616047,170.140607 207.007439,140.669077 206.937646,140.390386 C206.658472,139.554315 187.814234,87.0908104 187.465267,86.2547386 C183.69642,86.4637566 178.461909,86.4637566 172.320084,85.6973574 C166.038671,84.9309583 153.545639,83.3284874 140.49426,75.6644961 C126.047011,67.2341056 116.555099,55.5987734 112.925838,49.1192171 C122.417751,69.1849398 137.213967,94.6154564 159.966639,120.394336 C180.904681,144.152709 201.144788,160.665127 218.313982,172.230787 L218.313982,172.230787 Z" id="Shape" fill="#287EE1"></path>
                        <path d="M59.8827994,118.791865 C82.9844388,92.3859317 98.1296223,66.5373791 108.110089,46.1232932 C107.830915,46.0536205 101.270329,61.0332399 85.4970038,71.6234825 C73.56232,79.5661644 61.8370166,81.5866712 54.4389085,82.8407788 C46.3428657,84.2342318 39.3635185,84.3039045 34.4779754,84.0948865 C23.2412263,113.287726 11.9346838,142.132203 0.697934725,171.394715 L0.767728197,171.673405 L0.83752167,171.673405 C18.2858898,159.341347 38.9447576,142.828929 59.8827994,118.791865 L59.8827994,118.791865 Z" id="Shape" fill="#025A92"></path>
                        <path d="M218.313982,172.091441 L218.313982,172.091441 C201.144788,160.456109 180.904681,143.943691 159.966639,120.254991 C137.144173,94.4761111 122.417751,68.9759218 112.925838,48.9798718 C112.15811,47.3077282 111.390382,45.6355846 110.622654,44.0331137 C110.1341,43.8937684 109.715339,43.6847505 109.296578,43.5454052 C108.947611,44.3118043 108.52885,45.1478761 108.110089,45.9142752 C98.1994158,66.3283612 82.9844388,92.1769137 59.8827994,118.582847 C38.8749642,142.619911 18.2858898,158.923311 0.767728197,171.185697" id="Shape" fill="#1062A9"></path>
                        <path d="M109.296578,195.013743 L207.007439,195.083415 L213.777406,195.083415 L218.453569,171.673405 C145.31001,171.673405 73.7717004,171.116024 0.628141252,171.116024 L6.56058641,195.153088 L12.9117924,195.153088 L109.296578,195.013743 L109.296578,195.013743 Z" id="Shape" fill="#025A92"></path>
                        <path d="M127.442881,46.9686654 C135.67851,46.6899748 140.005706,43.9727415 147.403814,42.2309253 C153.894607,40.6284544 163.526106,39.5833647 176.298311,42.5096159 C173.297192,39.0259835 169.179377,34.775952 163.595899,30.7349384 C159.338498,27.6693418 155.290476,25.4398171 151.800803,23.7676735 C153.196672,21.1201129 155.220683,17.9848437 158.012422,14.9192472 C165.689704,6.55852939 174.972235,3.28391492 179.857779,1.9601346 C174.693062,0.566681637 167.853301,-0.548080736 160.106226,0.287991044 C146.636086,1.68144401 141.192195,7.74296441 128.350196,8.50936355 C123.255272,8.78805414 116.694686,8.3003456 108.877817,5.44376702 L108.877817,43.2063424 C109.226784,43.3456877 109.645545,43.485033 109.994513,43.6940509 C110.413273,43.9030689 110.901828,44.0424142 111.320589,44.1817595 C115.438403,45.7842304 120.952088,47.1776834 127.442881,46.9686654 L127.442881,46.9686654 Z" id="Flag" fill="#FFFFFF"></path>
                    </g>
                </g>
            </g>
        </g>
    </g>
</svg>